<svg
  xmlns="http://www.w3.org/2000/svg" viewBox="0 0 211.98 203.36">
  <title>Slothy</title>
  <path d="M134.68,18.86c-58.54,0-106,37-106,95.77,0,74,3.37,107.59,106,107.59s106-33.59,106-107.59C240.67,55.84,193.21,18.86,134.68,18.86Zm80.47,130c-2.86,14.13-8.31,16.76-33.28,18.07s-69.43,1.32-95.76-.65-34.5-5.92-35-57.18c1.41-13.67,9-21.39,21.6-26.57-.66-6.21,1.67-12.25,6.64-17.1C85.23,59.67,94,56.65,101,57.91a4.32,4.32,0,0,1-1.52,8.51c-4.32-.78-10.28,1.41-14.15,5.19a12.88,12.88,0,0,0-4.12,7.94C85.72,78.24,90.63,77.1,96,76c18-3.62,25-14.68,14.73-23.84-10.4-9.32-32.09-3.69-47.36,12.2,13.76-22.29,38.53-39.13,71.36-39.13S192.27,42.1,206,64.39c-15.27-15.89-37-21.52-47.36-12.2C148.43,61.35,155.38,72.41,173.4,76c5.32,1.07,10.23,2.21,14.71,3.52A12.88,12.88,0,0,0,184,71.61c-3.87-3.78-9.83-6-14.15-5.19a4.32,4.32,0,0,1-1.52-8.51c7.08-1.26,15.81,1.76,21.71,7.51,5,4.85,7.3,10.89,6.64,17.1,12.57,5.18,20.19,12.9,20.9,19.73S218,134.72,215.15,148.85Z" transform="translate(-28.68 -18.86)"/>
  <path d="M187.55,87.42c-5.58-1.84-14,3.36-33.3,5.72-2.3.28-4.76.52-7.39.7l-.17-.06c-2.84-1-4.76-3-4.76-5.26,0-3.34,4.19-6,9.37-6h.44a19,19,0,0,0,1.32-8.69c-.51-4.13-3.3-7.83-8.79-9.68a29.58,29.58,0,0,0-19.88.93c-6.19,2.77-10.38,8.32-6.86,17.44h.53c5.17,0,9.36,2.7,9.36,6,0,2.26-1.92,4.22-4.76,5.26l-.17.06c-2.63-.18-5.09-.42-7.39-.7-19.28-2.36-27.72-7.56-33.3-5.72-14,4.63-2,24.31,28.53,31.36,4.11,13.26,13.45,29.63,24.35,29.63S154.91,132,159,118.78C189.51,111.73,201.54,92.05,187.55,87.42Zm-40.25,33.3c-2.41,5.66-10.47,12.07-12.62,13.72-2.16-1.65-10.22-8.06-12.63-13.72-.91-2.13-1-4.16.29-5.78,2-2.45,7.12-3.58,12.34-3.58S145,112.49,147,114.94C148.32,116.56,148.21,118.59,147.3,120.72Z" transform="translate(-28.68 -18.86)"/>
</svg>
