<svg id="Default" xmlns="http://www.w3.org/2000/svg" viewBox="0 0 231.98 223.36"><defs><style>.cls-1{fill:#fff;}</style></defs><title>sloth PRODUCTION with white stroke inverted</title><path class="cls-1" d="M134.68,227.22c-106.28,0-111-36.55-111-112.59C23.68,85,35,59.47,56.46,40.92c20.17-17.45,47.94-27.06,78.22-27.06s58,9.61,78.21,27.06c21.45,18.55,32.78,44,32.78,73.71C245.67,190.67,241,227.22,134.68,227.22Z" transform="translate(-18.68 -8.86)"/><path d="M134.68,18.86c58.53,0,106,37,106,95.77,0,74-3.37,107.59-106,107.59s-106-33.59-106-107.59c0-58.79,47.46-95.77,106-95.77m0-10c-31.48,0-60.42,10-81.49,28.28A97.81,97.81,0,0,0,27.92,70.71a104.8,104.8,0,0,0-9.24,43.92c0,40,1.16,67.72,16.61,87.67,16.25,21,46,29.92,99.39,29.92s83.13-8.94,99.38-29.92c15.45-20,16.61-47.66,16.61-87.67a104.8,104.8,0,0,0-9.24-43.92,97.91,97.91,0,0,0-25.26-33.57c-21.08-18.24-50-28.28-81.49-28.28Z" transform="translate(-18.68 -8.86)"/><path d="M196.67,82.52c.66-6.21-1.67-12.25-6.64-17.1-5.9-5.75-14.63-8.77-21.71-7.51a4.32,4.32,0,0,0,1.52,8.51c4.32-.78,10.28,1.41,14.15,5.19a12.88,12.88,0,0,1,4.12,7.94c-4.48-1.31-9.39-2.45-14.71-3.52-18-3.62-25-14.68-14.73-23.84,10.4-9.32,32.09-3.69,47.36,12.2-13.76-22.29-38.52-39.13-71.35-39.13S77.08,42.1,63.32,64.39c15.27-15.89,37-21.52,47.36-12.2C120.92,61.35,114,72.41,96,76c-5.32,1.07-10.23,2.21-14.71,3.52a12.88,12.88,0,0,1,4.12-7.94c3.87-3.78,9.83-6,14.15-5.19A4.32,4.32,0,0,0,101,57.91c-7.08-1.26-15.8,1.76-21.71,7.51-5,4.85-7.3,10.89-6.64,17.1-12.57,5.18-20.19,12.9-21.6,26.57.53,51.26,8.71,55.2,35,57.18s70.8,2,95.76.65,30.42-3.94,33.28-18.07,3.12-39.76,2.42-46.6S209.24,87.7,196.67,82.52ZM159,118.78c-4.12,13.26-13.46,29.63-24.35,29.63S114.44,132,110.33,118.78c-30.49-7-42.52-26.73-28.53-31.36,5.58-1.84,14,3.36,33.3,5.72,2.3.28,4.76.52,7.39.7l.17-.06c2.84-1,4.76-3,4.76-5.26,0-3.34-4.19-6-9.36-6h-.53c-3.52-9.12.67-14.67,6.86-17.44a29.58,29.58,0,0,1,19.88-.93c5.49,1.85,8.28,5.55,8.79,9.68a19,19,0,0,1-1.32,8.69h-.44c-5.18,0-9.37,2.7-9.37,6,0,2.26,1.92,4.22,4.76,5.26l.17.06c2.63-.18,5.09-.42,7.39-.7,19.28-2.36,27.72-7.56,33.3-5.72C201.54,92.05,189.51,111.73,159,118.78Z" transform="translate(-18.68 -8.86)"/><path d="M134.68,111.36c-5.22,0-10.36,1.13-12.34,3.58-1.31,1.62-1.2,3.65-.29,5.78,2.41,5.66,10.47,12.07,12.63,13.72,2.15-1.65,10.21-8.06,12.62-13.72.91-2.13,1-4.16-.29-5.78C145,112.49,139.89,111.36,134.68,111.36Z" transform="translate(-18.68 -8.86)"/></svg>