<svg id="Layer_1" data-name="Layer 1" xmlns="http://www.w3.org/2000/svg" viewBox="0 0 453.57 176.5"><title>Slothy lazy dog</title><path d="M109.21,52.77a34.45,34.45,0,0,1-.6,4.44,29.4,29.4,0,0,0-.61,5.25h-7.27c-.81,0-2.35-1.28-4.64-3.84a37.68,37.68,0,0,0-8.48-7.47,38.92,38.92,0,0,0-16-4.84,45.11,45.11,0,0,0-18.37,2.22q-12.12,4-12.12,13.33,0,7.26,16.36,19Q81.94,98,88.41,104.47q16.77,16.75,17.37,35.94.19,6.87-5.45,13.33A24.06,24.06,0,0,1,87,161.82q-3.44.81-12.72.81-18.78,0-32.72-3.24-18.38-4.23-18.37-12.92,0-6.47,8.88-9.69-.81.41,11.51,4.44a91.45,91.45,0,0,0,26.66,4.24c1.88,0,3.7-.07,5.45-.2a15,15,0,0,0,7.68-2.63c2.82-1.88,4.24-4.1,4.24-6.66q0-9.09-13.33-22.21A145.07,145.07,0,0,0,51.66,95.58Q22.58,76.2,22.58,60.85q0-18,18.78-26.46,13.53-6.06,31.91-6.06a46.34,46.34,0,0,1,22.82,6.06Q109.22,41.67,109.21,52.77Z" transform="translate(-22.58 -28.33)"/><path d="M159.09,146.87q3.84,7.27,3.84,8.28,0,4-13.12,4c-1.62,0-3.37-.06-5.26-.2q-18.37-.8-23.42-15.75-2.22-7.06-2.22-30.49c0,.4-.07-1.48-.2-5.66s-.21-8.28-.21-12.32q0-47.05,10.3-47.66l8.28-.2q4.24.41,4.24,5.25,0-.4-2,25.25-2,25.85-2,34.73,0,18.58,4.24,25,2.43,3.84,8.89,4.64T159.09,146.87Z" transform="translate(-22.58 -28.33)"/><path d="M243.1,131.73q0,12.92-16.55,20.19a59,59,0,0,1-24.44,5.45q-13.74,0-23.83-6.05-12.12-7.27-12.12-20.6,0-11.72,11.52-24.24T200.09,94a20.81,20.81,0,0,1,4,.81,25,25,0,0,0,4.24.61q1.22,0,5-1.82A17.35,17.35,0,0,1,218.47,92q11.91,0,19.38,17.36Q243.1,122.24,243.1,131.73Zm-19.18-5.86a27.67,27.67,0,0,0-2.42-10.3q-2.43-5.85-5.66-6.46a32.39,32.39,0,0,0-2.82,2.22,5.94,5.94,0,0,1-3.24,1.62,6.72,6.72,0,0,1-3-1,5.41,5.41,0,0,0-2.62-1q-5.46,0-12.52,7.67-7.06,7.88-7.07,13.13,0,3.63,7.27,7.67,6.25,3.43,9.09,3.44,6.66,0,14.34-4.85Q223.91,132.74,223.92,125.87Z" transform="translate(-22.58 -28.33)"/><path d="M310.15,101.24q-14.14,1.82-21.21,5.45-11.31,5.44-11.3,16.56a21.77,21.77,0,0,0,3.83,12.11q4.25,7.08,10.5,7.07,1.21,0,4.85-2.42c2.29-1.48,3.9-2.22,4.85-2.22q5.85,0,5.85,17.16-3.63,4.85-12.72,4.85-19.38,0-29.28-12.72-9.09-11.52-8.28-31.31l-8.08-4.44a6.12,6.12,0,0,1-3-5.65q0-5.46,7.47-8.08,8.68-3,10.51-6.46a64.4,64.4,0,0,0,4.44-12.73q3.22-12.3,3.43-12.92a16.1,16.1,0,0,1,10.91-3.84,10.94,10.94,0,0,1,2.22.21q6.06,5.44,6.06,14.94A45.67,45.67,0,0,1,290,86.49q3.82,0,17.36-.8,8.69-.21,17.57.4a3.46,3.46,0,0,1,.81,2.22q0,2-2.22,5.65c-1.49,2.43-2.22,4-2.22,4.65v1Q318.64,100,310.15,101.24Z" transform="translate(-22.58 -28.33)"/><path d="M397.79,154.35a25.69,25.69,0,0,1-.6,4.44,20,20,0,0,0-.81,4q-7.28-3.63-8.89-3.64l-.4.41Q383,156.77,379.62,140q-3.84-17.77-9.49-24-8.29,3.43-13.53,17.16a66.7,66.7,0,0,0-4,21.41,7.07,7.07,0,0,1-4.65,1.61q-14.54.81-17.36-53.31-1.21-22.62-1.22-40.19,0-14.32,5.86-14.33,8.69,0,11.31,9.89,1.22,3.84,1.21,13.73v32.92a16.22,16.22,0,0,0,1.82,2q9.69-10.31,19.59-10.3,13.94,0,22.41,25.24Q397.79,140.42,397.79,154.35Z" transform="translate(-22.58 -28.33)"/><path d="M476.15,167.07q-1,37.76-37.56,37.76a55.42,55.42,0,0,1-17.57-3q-13.53-4.44-13.53-13.12,0-14.15,10.09-19.19,5.66,2.83,6.26,3.23,2.22,2,6.26,9.29,6.67,5.25,12.93,5.25,13.32,0,13.33-21.4a78.58,78.58,0,0,0-1.62-11.92q-1.62-9.69-2-14.94-9.5,11.5-16.76,11.51-14.94,0-23.42-7.88-9.09-8.26-9.09-24a140.73,140.73,0,0,1,3.43-29.48,35.14,35.14,0,0,1,10.3,1.61q4,1.22,7.67,2.63a61.8,61.8,0,0,1-.4,9.09c-.4,4.84-.61,8.41-.61,10.7q0,16.77,11.72,17.57,10.9-12.52,10.9-24a53.15,53.15,0,0,0-.81-7.88,71.07,71.07,0,0,1-.6-7.88q4.24-.6,17.37-2.42,13.72,57,13.73,77.35Z" transform="translate(-22.58 -28.33)"/></svg>