<svg id="Layer_1" data-name="Layer 1" xmlns="http://www.w3.org/2000/svg" viewBox="0 0 404.13 189.02"><title>Slothy lazy time</title><path d="M97.85,108.34a46.11,46.11,0,0,1-23-25.59,21.58,21.58,0,0,1-2.06-9q0-13.4,18.23-25,10.31-6.6,17-8.35l-5.87-15.65q-6.81,0-26.68,14.06T55.57,74.3q0,29.78,31.72,47.38,9.9,6.18,9.89,12.06,0,9.47-5.3,14.88a18.49,18.49,0,0,1-12.41,5.82q-9.69,0-18.75-11.23L47.43,154Q62,171.43,79,171.44q15.15,0,25.19-10.67t10-27.55Q114.18,116.53,97.85,108.34Z" transform="translate(-47.43 -23.01)"/><path d="M148.89,31.45,132.2,26.82q-1.65,2.57-6.74,39.24t.77,97l11.33,7.21,8.65-2.88L143,157.94q-5.06-56.44-.21-90.8T148.89,31.45Z" transform="translate(-47.43 -23.01)"/><path d="M209.66,73.48q-8.85-9.17-23.59-7.21a30.27,30.27,0,0,0-20.8,12.36,50.59,50.59,0,0,0-8.4,21.37,99.84,99.84,0,0,0-1.23,21q.56,9.22,1.08,11a43.15,43.15,0,0,0,11.07,25.29q9.53,10.46,20.14,12a17.36,17.36,0,0,0,1.95.11q10.41,0,21.22-10.51Q222,147.13,221.82,133q-.1-2.35,0-5.87v-.92a171.06,171.06,0,0,0-1.34-27.61Q218.62,83.57,209.66,73.48ZM204.51,126q-.1,4.53,0,7.62,0,6.8-5.87,13.19a23.11,23.11,0,0,1-5.3,4,9.19,9.19,0,0,1-3.46,1.24h-.1c-2.67-.41-5.82-2.66-9.42-6.75A27,27,0,0,1,173.92,130q-1.23-6.28-.82-19.21t6.07-21.89a13.5,13.5,0,0,1,9.27-5.56,16.16,16.16,0,0,1,2.48-.21,8.34,8.34,0,0,1,6.48,2.47q5.26,6.39,6.34,18.7A181.67,181.67,0,0,1,204.51,126Z" transform="translate(-47.43 -23.01)"/><path d="M369.42,155.88a188,188,0,0,0-.87-28,56.09,56.09,0,0,0-8.91-25.34q-4.54-6.08-9.53-8.29a23.9,23.9,0,0,0-8.91-2.31,37,37,0,0,0-21.22,7,294.47,294.47,0,0,1,2.88-31.21A136.46,136.46,0,0,1,326.93,49a49.82,49.82,0,0,1,3.61-9.11,21.5,21.5,0,0,1,1.59-2.53l-.92.72-8.66-15q-2.37,1-6.38,7.15t-7.78,21.17q-3.76,15-5.51,42.85-1.23,19.66-.51,47.52l-10.51-5a21.25,21.25,0,0,1-1.59,2.84,43,43,0,0,1-4.59,6,28.75,28.75,0,0,1-7.21,5.77,18.75,18.75,0,0,1-9.48,2.42q-4.74-8-4-41a99,99,0,0,1,15.76-5l-3.4-17q-2.47.42-11.44,3.19,1.56-25,5.57-53.46l-17.1-2.47q-1.45,9.59-3.4,26.89t-3,37.08a38.19,38.19,0,0,0-19.47,24l16.9,3.6a13.53,13.53,0,0,1,2.26-4.84q.11,28,8,40.17a17.22,17.22,0,0,0,5.4,4.54,12.91,12.91,0,0,0,5,1.44,37.34,37.34,0,0,0,8.34-.11A33.72,33.72,0,0,0,292.53,163a61.92,61.92,0,0,0,10.16-10.84q.26,6.79.6,14l17.31-.82q-1.25-24.72-1.14-43.57a60.79,60.79,0,0,1,10.36-8.6q5.82-3.87,10.55-4a5.88,5.88,0,0,1,2.38.62,7.54,7.54,0,0,1,2.77,2.78q5.16,7.72,6.08,19.42a208.57,208.57,0,0,1,.52,23.63q-1.14,19.47,3.09,32.25l16.07-6.49a34.18,34.18,0,0,1-1.76-10.92Q369.33,163.61,369.42,155.88Z" transform="translate(-47.43 -23.01)"/><path d="M451.05,114.68q-1.19-20.19-1.9-25.34L432,91.19A442.16,442.16,0,0,1,434.11,141H434c-.41,1.64-2.2,3.33-5.36,5a36.65,36.65,0,0,1-13.18,3.61q-7.11.61-11.44-.93-2.16-5.14-1.08-21.27A269.19,269.19,0,0,1,408,92l-17-3.5q-13.5,66.54,4.74,75.39a40,40,0,0,0,16.17,3.1,57.62,57.62,0,0,0,20.91-4q-1.65,14-5.66,20.7a24.67,24.67,0,0,1-9.12,8.19,26.42,26.42,0,0,1-9.79,2.73,33.84,33.84,0,0,1-8-.26,23.59,23.59,0,0,1-3.6-.77l-5.26,16.48a42.11,42.11,0,0,0,13.8,2,46.74,46.74,0,0,0,18.91-3.86q9.82-4.08,17.35-14.89,7.62-12.87,9.22-35.64A333.61,333.61,0,0,0,451.05,114.68Z" transform="translate(-47.43 -23.01)"/></svg>